<?xml version="1.0" encoding="UTF-8" standalone="no"?>
<svg
    xmlns:dc="http://purl.org/dc/elements/1.1/"
    xmlns:cc="http://creativecommons.org/ns#"
    xmlns:rdf="http://www.w3.org/1999/02/22-rdf-syntax-ns#"
    xmlns:svg="http://www.w3.org/2000/svg"
    xmlns="http://www.w3.org/2000/svg"
    xmlns:sodipodi="http://sodipodi.sourceforge.net/DTD/sodipodi-0.dtd"
    xmlns:inkscape="http://www.inkscape.org/namespaces/inkscape"
    id="svg8"
    version="1.1"
    viewBox="0 0 512 150"
    height="150"
    width="512"
    sodipodi:docname="lakshay.svg"
    inkscape:version="0.92.1 r15371">
    <g
        transform="translate(0.4999965,-342.53332)"
        id="layer1">
        <g aria-label="Lakshay">
            <path
                id="path4487"
                fill="transparent"
                class="fill"
                d="m 70.854538,438.71269 q 0,2.85043 0.662891,4.64024 0.72918,1.72351 2.054962,2.71785 1.325782,0.99434 3.314456,1.39207 2.054962,0.33145 4.772815,0.33145 4.375081,0 7.888404,-0.86176 3.513322,-0.92805 6.164886,-1.98868 2.651564,-1.12691 4.441368,-2.05496 1.8561,-0.92805 2.85043,-0.92805 1.2595,0 1.98868,0.79547 0.72918,0.79547 0.72918,2.32012 0,2.65157 -0.53032,3.84477 -0.53031,1.12692 -2.18754,1.72352 -6.032305,2.12125 -13.589263,3.11558 -7.556958,1.06063 -17.102589,1.06063 -7.092934,0 -11.600593,-0.66289 -4.507659,-0.5966 -7.092934,-2.18754 -2.585275,-1.59094 -3.579612,-4.30879 -0.928047,-2.78415 -0.928047,-7.09294 v -75.30442 q 0,-1.45836 -0.331446,-2.32012 -0.331445,-0.86176 -0.928047,-1.32578 -0.596602,-0.53031 -1.45836,-0.66289 -0.79547,-0.19887 -1.789806,-0.19887 -1.458361,0 -3.645901,0.46403 -2.121251,0.46402 -4.507659,1.39207 -2.386408,0.92804 -4.839105,2.32011 -2.386408,1.32579 -4.308792,3.0493 -1.856094,1.72352 -3.049298,3.84477 -1.193204,2.12125 -1.193204,4.57395 0,2.12125 0.530313,3.38074 0.596602,1.2595 1.325782,1.92239 0.72918,0.5966 1.45836,0.79547 0.795469,0.13258 1.126915,0.13258 1.657227,0 2.717853,-0.53032 1.060626,-0.5966 1.922384,-1.1932 0.861758,-0.66289 1.590939,-1.1932 0.795469,-0.59661 1.789805,-0.59661 0.79547,0 1.657228,0.39774 0.928047,0.33144 1.657228,1.12691 0.795469,0.79547 1.325782,2.12125 0.530313,1.2595 0.530313,3.11559 0,2.65157 -1.060626,4.57395 -0.994337,1.92238 -2.651564,3.24817 -1.590939,1.25949 -3.71219,1.92238 -2.054962,0.5966 -4.109925,0.5966 -3.181877,0 -5.767152,-1.06062 -2.518986,-1.12692 -4.308792,-3.0493 -1.789805,-1.92239 -2.717853,-4.50766 -0.928047,-2.58528 -0.928047,-5.502 0,-4.57395 1.657227,-8.35242 1.657228,-3.84477 4.507659,-6.89407 2.916721,-3.0493 6.761489,-5.30313 3.911057,-2.32012 8.418716,-3.84477 4.507659,-1.52465 9.413053,-2.25383 4.905394,-0.79547 9.810788,-0.79547 5.435706,0 8.418716,1.06063 3.049299,0.99434 4.44137,2.4527 1.45836,1.45836 1.723517,3.0493 0.265156,1.59093 0.265156,2.65156 z"
                inkscape:connector-curvature="0"
                style="stroke-width:2" />
            <path
                id="path4489"
                fill="transparent"
                class="fill"
                d="m 143.70626,419.42256 q 0,-1.65723 -1.06062,-2.51899 -1.06063,-0.86176 -2.71785,-0.86176 -2.32012,0 -4.44137,1.06063 -2.05497,1.06063 -3.6459,3.11559 -1.59094,2.05496 -2.51899,5.10426 -0.92805,2.98301 -0.92805,6.96036 0,3.84476 0.53031,6.36375 0.59661,2.51899 1.52465,4.04363 0.99434,1.45836 2.25383,2.05497 1.2595,0.5966 2.65157,0.5966 1.72351,0 3.24816,-0.86176 1.52465,-0.92805 2.65157,-2.32012 1.12691,-1.39207 1.7898,-3.11559 0.66289,-1.72351 0.66289,-3.44703 z M 133.1663,390.38793 q -2.25383,0 -4.17622,0.53031 -1.92238,0.53032 -3.31445,1.32579 -1.39207,0.79547 -2.18754,1.7898 -0.79547,0.92805 -0.79547,1.78981 0,0.99433 0.99434,1.45836 1.06062,0.39773 2.32011,0.99433 1.2595,0.53032 2.25383,1.59094 1.06063,0.99434 1.06063,3.11559 0,1.39207 -0.5966,2.58528 -0.53032,1.12691 -1.52465,2.05496 -0.92805,0.86176 -2.25383,1.39207 -1.25949,0.46402 -2.65157,0.46402 -3.71219,0 -6.0323,-2.51898 -2.25383,-2.51899 -2.25383,-6.6952 0,-4.04364 2.12125,-6.89407 2.12125,-2.91672 5.50199,-4.77281 3.44704,-1.8561 7.75583,-2.71786 4.30879,-0.92805 8.61758,-0.92805 5.17055,0 9.87708,1.12692 4.70652,1.12691 8.28614,3.57961 3.6459,2.4527 5.76715,6.23118 2.18754,3.77848 2.18754,9.14789 v 37.45335 q 0,0.5966 0.0663,1.32578 0.0663,0.72918 0.33144,1.32578 0.26516,0.5966 0.79547,0.99434 0.53032,0.39773 1.52465,0.39773 1.19321,0 2.18754,-0.86176 1.06063,-0.92804 1.8561,-1.85609 l 1.65723,1.39207 q -0.99434,1.39207 -2.38641,3.0493 -1.39207,1.65723 -3.38075,3.11559 -1.98867,1.45836 -4.64023,2.45269 -2.65157,0.99434 -6.03231,0.99434 -4.17622,0 -7.42438,-2.4527 -3.24817,-2.51898 -4.24251,-7.68953 -2.12125,2.85043 -4.44137,4.77281 -2.25382,1.92239 -4.64023,3.11559 -2.38641,1.1932 -4.83911,1.72352 -2.3864,0.53031 -4.8391,0.53031 -3.18188,0 -6.16489,-0.99434 -2.98301,-0.99433 -5.36942,-3.11558 -2.32011,-2.18754 -3.77847,-5.63458 -1.39208,-3.44703 -1.39208,-8.41871 0,-6.03231 2.38641,-9.87708 2.38641,-3.84477 6.23118,-6.43004 3.91105,-2.65157 8.81645,-4.50766 4.97168,-1.8561 10.14223,-3.91106 3.84477,-1.52465 5.56829,-4.50766 1.7898,-3.0493 1.7898,-6.23117 0,-4.9054 -2.91672,-7.82212 -2.85043,-2.98301 -7.82211,-2.98301 z"
                inkscape:connector-curvature="0"
                style="stroke-width:2" />
            <path
                id="path4491"
                fill="transparent"
                class="fill"
                d="m 201.97438,402.98286 q 2.32012,-3.11559 4.97169,-6.29746 2.65156,-3.24817 5.70086,-5.83345 3.0493,-2.58527 6.62891,-4.2425 3.57961,-1.65723 7.82212,-1.65723 3.77847,0 6.29746,1.52465 2.51899,1.45836 4.04364,3.57962 1.59093,2.05496 2.18754,4.30879 0.66289,2.25383 0.66289,3.84477 0,2.91672 -0.79547,6.09859 -0.72918,3.11559 -2.58528,6.23118 -1.7898,3.0493 -4.8391,5.96602 -3.0493,2.85043 -7.68954,5.23684 6.23118,13.19153 12.13091,22.73716 5.89973,9.47934 11.33543,15.57794 5.502,6.16489 10.53997,9.08161 5.03797,2.91672 9.61192,2.91672 0.79547,0 1.59094,-0.19887 0.79547,-0.19887 1.45836,-0.46402 0.72918,-0.26516 1.52465,-0.66289 l 1.25949,2.32011 q -1.7898,0.99434 -3.6459,1.8561 -1.85609,0.92805 -4.2425,1.59094 -2.38641,0.66289 -5.502,1.06062 -3.11558,0.39774 -7.42438,0.39774 -3.91105,0 -7.75582,-0.92805 -3.77848,-0.92805 -7.62325,-3.31445 -3.84477,-2.38641 -7.82211,-6.36376 -3.91106,-3.97734 -8.08727,-10.07594 -4.10993,-6.0986 -8.48501,-14.51732 -4.37508,-8.41871 -9.08161,-19.68786 6.36376,-4.70653 10.00966,-8.68387 3.6459,-4.04364 5.502,-7.2918 1.85609,-3.24817 2.32011,-5.76716 0.46403,-2.51898 0.46403,-4.30879 0,-0.26515 -0.0663,-0.86176 -0.0663,-0.66289 -0.46403,-1.25949 -0.33144,-0.5966 -1.06062,-1.06063 -0.66289,-0.46402 -1.92238,-0.46402 -2.4527,0 -4.97169,2.12125 -2.51898,2.05496 -4.8391,5.17055 -2.25383,3.0493 -4.10993,6.62891 -1.85609,3.51333 -3.0493,6.43005 v 34.20517 q 0,0.86176 -0.33144,2.05497 -0.26516,1.1932 -1.39207,2.25383 -1.06063,1.06062 -3.18188,1.7898 -2.05496,0.79547 -5.56828,0.79547 -3.51333,0 -5.502,-0.86176 -1.98867,-0.79547 -2.98301,-1.92238 -0.92805,-1.12692 -1.1932,-2.32012 -0.19887,-1.1932 -0.19887,-1.92238 v -85.51295 q 0,-1.92238 -0.92805,-3.31445 -0.86176,-1.45836 -2.98301,-1.45836 -1.12691,0 -1.98867,0.39773 -0.79547,0.33145 -1.72352,1.06063 l -1.32578,-1.59094 q 1.52465,-1.2595 3.38074,-2.4527 1.8561,-1.25949 4.04364,-2.18754 2.25383,-0.92805 4.77282,-1.52465 2.51898,-0.5966 5.30312,-0.5966 4.3088,0 6.6952,1.1932 2.38641,1.12692 3.51333,2.85043 1.12691,1.65723 1.32578,3.57962 0.26515,1.85609 0.26515,3.31445 z"
                inkscape:connector-curvature="0"
                style="stroke-width:2" />
            <path
                id="path4493"
                fill="transparent"
                class="fill"
                d="m 274.8924,390.25535 q -1.52465,0 -2.91672,0.39774 -1.32579,0.39773 -2.38641,1.32578 -1.06063,0.86176 -1.65723,2.25383 -0.5966,1.32578 -0.5966,3.18188 0,2.58527 1.85609,5.17055 1.92239,2.51898 4.70653,5.30312 2.85043,2.71786 6.0986,5.70087 3.31445,2.91672 6.0986,6.23117 2.85043,3.24817 4.70652,6.96036 1.92239,3.71219 1.92239,7.95469 0,4.77282 -1.65723,8.48501 -1.59094,3.71219 -4.64024,6.29746 -2.98301,2.58528 -7.2918,3.97735 -4.2425,1.32578 -9.47934,1.32578 -4.57395,0 -8.28614,-1.25949 -3.71219,-1.32578 -6.62891,-3.18188 -2.85043,-1.92238 -4.90539,-4.04363 -2.05497,-2.12126 -3.18188,-3.84477 l 2.32012,-1.65723 q 0.86176,0.99434 2.18754,2.18754 1.32578,1.12691 2.91672,2.12125 1.65723,0.99434 3.51332,1.65723 1.8561,0.5966 3.77848,0.5966 4.77282,0 7.82211,-2.25383 3.0493,-2.32012 3.0493,-6.82778 0,-2.51898 -1.65722,-5.17055 -1.65723,-2.71785 -4.17622,-5.56828 -2.51898,-2.85043 -5.4357,-5.89973 -2.91673,-3.0493 -5.43571,-6.29747 -2.51899,-3.24816 -4.17622,-6.6952 -1.65722,-3.44703 -1.65722,-7.15922 0,-4.17621 1.65722,-7.2918 1.72352,-3.11559 4.50766,-5.17055 2.85044,-2.05496 6.43005,-3.0493 3.6459,-1.06063 7.49067,-1.06063 4.44137,0 8.08727,0.79547 3.6459,0.79547 6.23117,2.4527 2.65157,1.59094 4.04364,4.04364 1.45836,2.45269 1.45836,5.70086 0,2.51898 -1.65723,4.37508 -1.65723,1.85609 -4.64024,1.85609 -2.85043,0 -4.37508,-1.1932 -1.45836,-1.25949 -1.45836,-3.38074 0,-1.39207 0.66289,-2.18754 0.72918,-0.79547 1.59094,-1.2595 0.86176,-0.53031 1.52465,-0.86176 0.72918,-0.39773 0.72918,-0.99433 0,-1.8561 -1.98867,-2.91672 -1.98867,-1.12692 -5.10426,-1.12692 z"
                inkscape:connector-curvature="0"
                style="stroke-width:2" />
            <path
                id="path4495"
                fill="transparent"
                class="fill"
                d="m 324.21151,397.54715 q 2.45269,-3.51332 5.56828,-6.29746 1.25949,-1.1932 2.78414,-2.32012 1.59094,-1.12691 3.31446,-1.98867 1.7898,-0.92805 3.71219,-1.45836 1.98867,-0.53032 4.04363,-0.53032 4.44137,0 7.9547,1.72352 3.51332,1.72352 5.89973,5.76715 2.3864,4.04364 3.6459,10.73884 1.25949,6.62891 1.25949,16.50599 0,9.61192 -1.72352,16.70485 -1.72351,7.09293 -4.50766,12.06462 -2.78414,4.97168 -6.29746,8.08727 -3.51332,3.18187 -7.09293,4.97168 -3.57962,1.78981 -6.89407,2.4527 -3.31446,0.72918 -5.70086,0.79547 l -0.6629,-2.71786 q 2.98301,-0.72918 5.30313,-2.71785 2.32012,-1.98867 3.91106,-6.49633 1.59094,-4.57395 2.38641,-12.26349 0.86176,-7.68953 0.86176,-19.82044 0,-8.35243 -0.79547,-13.32411 -0.72918,-5.03797 -1.98868,-7.62325 -1.1932,-2.65156 -2.78414,-3.44703 -1.52465,-0.86176 -3.11559,-0.86176 -1.92238,0 -3.38074,1.06063 -1.45836,0.99433 -2.58528,2.32012 -1.06062,1.32578 -1.85609,2.65156 -0.72918,1.32578 -1.25949,1.98867 v 44.28113 q 0,0.86175 -0.26516,2.12125 -0.26516,1.1932 -1.32578,2.32012 -0.99434,1.06062 -3.0493,1.7898 -1.98867,0.79547 -5.502,0.79547 -3.51332,0 -5.56828,-0.86176 -2.05496,-0.79547 -3.11559,-1.92238 -0.99434,-1.12692 -1.25949,-2.32012 -0.26516,-1.1932 -0.26516,-1.92238 v -85.51295 q 0,-1.92238 -0.92805,-3.31445 -0.86175,-1.45836 -2.98301,-1.45836 -1.12691,0 -1.98867,0.39773 -0.79547,0.33145 -1.72352,1.06063 l -1.32578,-1.59094 q 1.52465,-1.2595 3.38075,-2.4527 1.85609,-1.25949 4.04363,-2.18754 2.25383,-0.92805 4.77282,-1.52465 2.51898,-0.5966 5.30313,-0.5966 4.30879,0 6.6952,1.1932 2.3864,1.12692 3.51332,2.85043 1.12691,1.65723 1.32578,3.57962 0.26516,1.85609 0.26516,3.31445 z"
                inkscape:connector-curvature="0"
                style="stroke-width:2" />
            <path
                id="path4497"
                fill="transparent"
                class="fill"
                d="m 405.94597,419.42256 q 0,-1.65723 -1.06063,-2.51899 -1.06063,-0.86176 -2.71785,-0.86176 -2.32012,0 -4.44137,1.06063 -2.05497,1.06063 -3.6459,3.11559 -1.59094,2.05496 -2.51899,5.10426 -0.92805,2.98301 -0.92805,6.96036 0,3.84476 0.53031,6.36375 0.59661,2.51899 1.52465,4.04363 0.99434,1.45836 2.25383,2.05497 1.2595,0.5966 2.65157,0.5966 1.72351,0 3.24816,-0.86176 1.52465,-0.92805 2.65157,-2.32012 1.12691,-1.39207 1.7898,-3.11559 0.6629,-1.72351 0.6629,-3.44703 z M 395.406,390.38793 q -2.25383,0 -4.17622,0.53031 -1.92238,0.53032 -3.31445,1.32579 -1.39207,0.79547 -2.18754,1.7898 -0.79547,0.92805 -0.79547,1.78981 0,0.99433 0.99434,1.45836 1.06062,0.39773 2.32011,0.99433 1.2595,0.53032 2.25383,1.59094 1.06063,0.99434 1.06063,3.11559 0,1.39207 -0.5966,2.58528 -0.53032,1.12691 -1.52465,2.05496 -0.92805,0.86176 -2.25383,1.39207 -1.25949,0.46402 -2.65157,0.46402 -3.71219,0 -6.0323,-2.51898 -2.25383,-2.51899 -2.25383,-6.6952 0,-4.04364 2.12125,-6.89407 2.12125,-2.91672 5.50199,-4.77281 3.44704,-1.8561 7.75583,-2.71786 4.30879,-0.92805 8.61758,-0.92805 5.17055,0 9.87708,1.12692 4.70653,1.12691 8.28614,3.57961 3.6459,2.4527 5.76715,6.23118 2.18754,3.77848 2.18754,9.14789 v 37.45335 q 0,0.5966 0.0663,1.32578 0.0663,0.72918 0.33144,1.32578 0.26516,0.5966 0.79547,0.99434 0.53032,0.39773 1.52465,0.39773 1.19321,0 2.18754,-0.86176 1.06063,-0.92804 1.8561,-1.85609 l 1.65723,1.39207 q -0.99434,1.39207 -2.38641,3.0493 -1.39207,1.65723 -3.38075,3.11559 -1.98867,1.45836 -4.64023,2.45269 -2.65157,0.99434 -6.03231,0.99434 -4.17622,0 -7.42438,-2.4527 -3.24817,-2.51898 -4.2425,-7.68953 -2.12126,2.85043 -4.44137,4.77281 -2.25383,1.92239 -4.64024,3.11559 -2.38641,1.1932 -4.83911,1.72352 -2.3864,0.53031 -4.8391,0.53031 -3.18188,0 -6.16489,-0.99434 -2.98301,-0.99433 -5.36942,-3.11558 -2.32011,-2.18754 -3.77847,-5.63458 -1.39208,-3.44703 -1.39208,-8.41871 0,-6.03231 2.38641,-9.87708 2.38641,-3.84477 6.23118,-6.43004 3.91106,-2.65157 8.81645,-4.50766 4.97168,-1.8561 10.14223,-3.91106 3.84477,-1.52465 5.56829,-4.50766 1.7898,-3.0493 1.7898,-6.23117 0,-4.9054 -2.91672,-7.82212 -2.85043,-2.98301 -7.82211,-2.98301 z"
                inkscape:connector-curvature="0"
                style="stroke-width:2" />
            <path
                id="path4499"
                fill="transparent"
                class="fill"
                d="m 496.56315,395.35961 q 0,12.13091 -2.38641,23.46635 -2.32011,11.26914 -6.49633,21.21251 -4.10992,9.87708 -9.81078,18.03064 -5.70087,8.21985 -12.39607,14.05329 -6.6952,5.83344 -14.18587,9.0816 -7.42438,3.24817 -15.04762,3.24817 -5.83344,0 -9.01532,-1.98867 -3.18188,-1.92239 -3.18188,-5.23684 0,-1.2595 0.39774,-2.4527 0.39773,-1.1932 1.06062,-2.12125 0.66289,-0.92805 1.59094,-1.52465 0.92805,-0.53031 1.98867,-0.53031 1.2595,0 2.12126,1.25949 0.79546,1.25949 1.72351,2.71785 0.92805,1.52465 2.25383,2.78415 1.32578,1.25949 3.6459,1.25949 2.98301,0 6.23118,-1.06063 3.24816,-0.99433 6.49633,-2.91672 3.31446,-1.92238 6.56262,-4.70652 3.31446,-2.71786 6.49633,-6.0986 -1.85609,-6.6952 -4.30879,-14.5836 -2.38641,-7.9547 -5.10426,-15.97568 -2.65156,-8.02098 -5.50199,-15.44536 -2.78415,-7.49067 -5.502,-13.25782 -2.65156,-5.76715 -5.17055,-9.21419 -2.4527,-3.51332 -4.37508,-3.51332 -1.25949,0 -1.92239,0.39774 -0.72918,0.39773 -1.65722,1.12691 l -1.32578,-1.65723 q 1.32578,-1.12691 2.78414,-2.32012 1.45836,-1.1932 3.44703,-2.18754 1.98867,-0.99433 4.64024,-1.59093 2.65156,-0.6629 6.36375,-0.6629 4.04364,0 7.49067,1.8561 3.51332,1.78981 6.36376,6.6952 2.05496,3.6459 4.2425,8.75016 2.25383,5.10426 4.50766,11.40173 2.25383,6.29746 4.50766,13.65555 2.32011,7.2918 4.64023,15.31279 4.10993,-8.61759 6.62891,-18.22951 2.51899,-9.67821 2.51899,-19.88673 0,-3.6459 -0.46402,-6.23118 -0.46403,-2.58527 -1.06063,-4.37508 -0.5966,-1.85609 -1.06063,-3.11558 -0.46402,-1.32579 -0.46402,-2.32012 0,-0.99434 0.79547,-1.65723 0.79547,-0.72918 1.92238,-1.12692 1.12692,-0.39773 2.25383,-0.53031 1.19321,-0.19887 1.98868,-0.19887 1.7898,0 2.71785,0.72918 0.99434,0.72918 1.45836,2.12126 0.46402,1.32578 0.53031,3.24816 0.0663,1.92239 0.0663,4.30879 z"
                inkscape:connector-curvature="0"
                style="stroke-width:2" />
        </g>
    </g>
</svg>
