<?xml version="1.0" encoding="iso-8859-1"?>
<!-- Generator: Adobe Illustrator 19.0.0, SVG Export Plug-In . SVG Version: 6.00 Build 0)  -->
<svg version="1.1" id="Layer_1" xmlns="http://www.w3.org/2000/svg" xmlns:xlink="http://www.w3.org/1999/xlink" x="0px" y="0px"
	 viewBox="0 0 511.969 511.969" style="enable-background:new 0 0 511.969 511.969;" xml:space="preserve">
<polygon style="fill:#F5F7FA;" points="372.977,95.996 286.983,88.996 286.983,14.001 14,14.001 14,500.471 376.977,500.471 "/>
<path style="fill:#CCD1D9;" d="M285.327,18.001c0,2,5.312,71.996,5.312,71.996l73.995,4L285.327,18.001z"/>
<polygon style="fill:#656D78;" points="497.97,127.994 491.97,96.668 474.628,85.996 457.317,88.668 441.973,100.667 
	432.631,149.336 441.973,395.305 501.313,395.305 "/>
<polygon style="fill:#FFCE54;" points="486.971,397.477 451.973,397.477 434.974,443.475 469.299,464.973 496.47,448.974 "/>
<path d="M383.93,95.105c-0.016-0.078-0.016-0.172-0.016-0.266c-0.031-0.312-0.094-0.625-0.141-0.938
	c-0.016,0-0.016-0.016-0.016-0.031c-0.062-0.281-0.125-0.578-0.219-0.875c-0.031-0.094-0.062-0.172-0.078-0.25
	c-0.078-0.234-0.156-0.453-0.234-0.672c-0.031-0.078-0.062-0.171-0.094-0.234c-0.125-0.297-0.266-0.594-0.406-0.859
	c0-0.016-0.016-0.016-0.031-0.047c-0.125-0.25-0.281-0.5-0.453-0.766c-0.047-0.078-0.109-0.141-0.156-0.219
	c-0.141-0.203-0.266-0.391-0.422-0.578c-0.062-0.062-0.109-0.141-0.172-0.219c-0.203-0.234-0.422-0.469-0.641-0.688L295.514,3.127
	c-0.219-0.219-0.453-0.438-0.688-0.641c-0.078-0.062-0.156-0.109-0.219-0.172c-0.188-0.156-0.375-0.281-0.578-0.422
	c-0.078-0.047-0.141-0.109-0.219-0.156c-0.266-0.172-0.516-0.328-0.781-0.469c-0.016,0-0.016-0.016-0.016-0.016
	c-0.281-0.156-0.578-0.281-0.875-0.406c-0.062-0.031-0.156-0.062-0.219-0.094c-0.234-0.078-0.453-0.156-0.688-0.234
	c-0.078-0.016-0.156-0.047-0.25-0.078c-0.297-0.094-0.594-0.156-0.875-0.219c-0.031,0-0.031,0-0.031-0.016
	c-0.312-0.047-0.625-0.109-0.938-0.141c-0.094,0-0.188,0-0.266-0.016C288.637,0.031,288.387,0,288.137,0c-0.047,0-0.094,0-0.156,0
	H10.664C4.773,0,0,4.781,0,10.656v490.658c0,5.875,4.773,10.655,10.664,10.655h362.657c5.875,0,10.656-4.78,10.656-10.655V95.996
	c0-0.062,0-0.109,0-0.156C383.962,95.59,383.946,95.34,383.93,95.105z M298.639,36.421l48.918,48.919h-48.918V36.421z
	 M21.335,490.628V21.344h255.992v74.652c0,5.89,4.766,10.656,10.656,10.656h74.652v383.976L21.335,490.628L21.335,490.628z"/>
<path d="M511.969,117.338c0-23.577-19.093-42.685-42.654-42.685c-23.576,0-42.684,19.108-42.684,42.685v287.983h13.248
	l-13.248,46.216l42.684,28.436l42.654-28.436l-13.233-46.216h13.233V117.338z M447.973,117.338c0-11.78,9.562-21.342,21.342-21.342
	c11.75,0,21.312,9.562,21.312,21.342v266.64h-42.654L447.973,117.338L447.973,117.338z M487.174,442.413l-17.859,11.92
	l-17.873-11.92l10.624-37.092h14.483L487.174,442.413z"/>
<path d="M309.325,277.329H74.856c-5.891,0-10.671,4.766-10.671,10.655s4.781,10.655,10.671,10.655h234.469
	c5.875,0,10.656-4.766,10.656-10.655S315.2,277.329,309.325,277.329z"/>
<path d="M309.325,341.325H74.856c-5.891,0-10.671,4.766-10.671,10.655s4.781,10.655,10.671,10.655h234.469
	c5.875,0,10.656-4.766,10.656-10.655S315.2,341.325,309.325,341.325z"/>
<path d="M202.652,405.321H74.856c-5.891,0-10.671,4.766-10.671,10.655s4.781,10.655,10.671,10.655h127.797
	c5.89,0,10.671-4.766,10.671-10.655S208.543,405.321,202.652,405.321z"/>
<path d="M74.856,106.652h53.231v85.338H96.089c-5.89,0-10.664,4.781-10.664,10.656c0,5.906,4.773,10.687,10.664,10.687h85.331
	c5.891,0,10.664-4.781,10.664-10.687c0-5.875-4.773-10.656-10.664-10.656h-31.998v-85.338h53.427c5.89,0,10.663-4.766,10.663-10.656
	s-4.773-10.656-10.663-10.656h-53.427V73.997c0-5.891-4.773-10.656-10.663-10.656c-5.898,0-10.671,4.765-10.671,10.656V85.34H74.856
	c-5.891,0-10.671,4.766-10.671,10.656S68.965,106.652,74.856,106.652z"/>
<path d="M95.299,138.65c0-5.875-4.781-10.656-10.671-10.656H63.301c-5.89,0-10.671,4.781-10.671,10.656
	c0,5.906,4.781,10.687,10.671,10.687h21.327C90.519,149.336,95.299,144.555,95.299,138.65z"/>
<path d="M191.989,127.994c-5.89,0-10.664,4.781-10.664,10.656c0,5.906,4.773,10.687,10.664,10.687h21.334
	c5.891,0,10.664-4.781,10.664-10.687c0-5.875-4.773-10.656-10.664-10.656H191.989z"/>
<g>
</g>
<g>
</g>
<g>
</g>
<g>
</g>
<g>
</g>
<g>
</g>
<g>
</g>
<g>
</g>
<g>
</g>
<g>
</g>
<g>
</g>
<g>
</g>
<g>
</g>
<g>
</g>
<g>
</g>
</svg>
