<?xml version="1.0" encoding="iso-8859-1"?>
<!-- Generator: Adobe Illustrator 19.0.0, SVG Export Plug-In . SVG Version: 6.00 Build 0)  -->
<svg version="1.1" id="Layer_1" xmlns="http://www.w3.org/2000/svg" xmlns:xlink="http://www.w3.org/1999/xlink" x="0px" y="0px"
	 viewBox="0 0 512 512" style="enable-background:new 0 0 512 512;" xml:space="preserve">
<circle style="fill:#EFC84A;" cx="256" cy="256" r="256"/>
<path style="fill:#334D5C;" d="M96.743,458.132l120.429-115.067c0.053,0.026,0.108,0.046,0.161,0.071l12.65-12.077l-39.2-39.2
	L60.122,422.521C71.108,435.567,83.38,447.499,96.743,458.132z"/>
<path style="fill:#334D5C;" d="M190.783,291.858l-34.72-34.72L33.913,385.087c7.625,13.268,16.404,25.792,26.209,37.434
	L190.783,291.858z"/>
<path style="opacity:0.4;fill:#5D5D5D;enable-background:new    ;" d="M96.743,458.132l120.429-115.067
	c0.053,0.026,0.108,0.046,0.161,0.071l12.65-12.077l-39.2-39.2L60.122,422.521C71.108,435.567,83.38,447.499,96.743,458.132z"/>
<path style="fill:#263A45;" d="M342.667,144.455c-35.893-35.895-92.047-39.159-131.634-9.754l141.388,141.388
	C381.825,236.502,378.562,180.348,342.667,144.455z"/>
<path style="fill:#19272E;" d="M199.732,287.391c35.893,35.894,92.496,38.711,131.633,9.754L189.978,155.757
	C161.02,194.896,163.838,251.497,199.732,287.391z"/>
<path style="fill:#111C21;" d="M284.435,287c3,0,5,0,8,0c0,3,0,5,0,8s5,3,5,0s0-5,0-8c3,0,5,0,8,0s3-5,0-5s-5,0-8,0c0-3,0-5,0-8
	s-5-3-5,0s0,5,0,8c-3,0-5,0-8,0S281.435,287,284.435,287z"/>
<path style="fill:#111C21;" d="M266.435,269c2,0,5,0,7,0c0,2,0,5,0,7c0,4,6,4,6,0c0-2,0-5,0-7c2,0,5,0,7,0c4,0,4-6,0-6c-2,0-5,0-7,0
	c0-2,0-5,0-7c0-4-6-4-6,0c0,2,0,5,0,7c-2,0-5,0-7,0C262.435,263,262.435,269,266.435,269z"/>
<path style="fill:#111C21;" d="M247.435,250c3,0,5,0,8,0c0,3,0,5,0,8s5,3,5,0s0-5,0-8c3,0,5,0,8,0s3-5,0-5s-5,0-8,0c0-3,0-5,0-8
	s-5-3-5,0s0,5,0,8c-3,0-5,0-8,0S244.435,250,247.435,250z"/>
<path style="fill:#111C21;" d="M229.435,232c2,0,5,0,8,0c0,2,0,5,0,8s5,3,5,0s0-6,0-8c2,0,5,0,7,0c4,0,4-6,0-6c-2,0-5,0-7,0
	c0-2,0-5,0-7c0-4-5-4-5,0c0,2,0,5,0,7c-3,0-6,0-8,0C225.435,226,225.435,232,229.435,232z"/>
<path style="fill:#111C21;" d="M210.435,213c3,0,5,0,8,0c0,3,0,6,0,8c0,4,6,4,6,0c0-2,0-5,0-8c2,0,5,0,7,0c4,0,4-5,0-5c-2,0-5,0-7,0
	c0-3,0-5,0-8s-6-3-6,0s0,5,0,8c-3,0-5,0-8,0S207.435,213,210.435,213z"/>
<path style="fill:#111C21;" d="M200.435,189c-3,0-6,0-8,0c-4,0-4,6,0,6c2,0,5,0,8,0c0,3,0,5,0,8s5,3,5,0s0-5,0-8c3,0,5,0,8,0
	s3-6,0-6s-5,0-8,0c0-2,0-5,0-7c0-4-5-4-5,0C200.435,184,200.435,187,200.435,189z"/>
<path style="fill:#111C21;" d="M271.435,295c3,0,5,0,8,0s3-6,0-6s-5,0-8,0c0-2,0-5,0-7c0-4-5-4-5,0c0,2,0,5,0,7c-3,0-5,0-8,0
	c-4,0-4,6,0,6c3,0,5,0,8,0c0,2,0,5,0,8s5,3,5,0S271.435,297,271.435,295z"/>
<path style="fill:#111C21;" d="M248.435,284c0,4,5,4,5,0c0-2,0-5,0-7c3,0,5,0,8,0s3-6,0-6s-5,0-8,0c0-2,0-5,0-7c0-4-5-4-5,0
	c0,2,0,5,0,7c-3,0-6,0-8,0c-4,0-4,6,0,6c2,0,5,0,8,0C248.435,279,248.435,282,248.435,284z"/>
<path style="fill:#111C21;" d="M222.435,259c2,0,5,0,7,0c0,2,0,5,0,7c0,4,6,4,6,0c0-2,0-5,0-7c2,0,5,0,7,0c4,0,4-6,0-6c-2,0-5,0-7,0
	c0-2,0-5,0-7c0-4-6-4-6,0c0,2,0,5,0,7c-2,0-5,0-7,0C218.435,253,218.435,259,222.435,259z"/>
<path style="fill:#111C21;" d="M217.435,240c2,0,5,0,7,0c4,0,4-5,0-5c-2,0-5,0-7,0c0-3,0-5,0-8s-6-3-6,0s0,5,0,8c-2,0-5,0-8,0
	s-3,5,0,5s6,0,8,0c0,3,0,6,0,8c0,4,6,4,6,0C217.435,246,217.435,243,217.435,240z"/>
<path style="fill:#111C21;" d="M199.435,222c2,0,5,0,7,0c4,0,4-5,0-5c-2,0-5,0-7,0c0-3,0-5,0-8s-6-3-6,0s0,5,0,8c-2,0-5,0-8,0
	s-3,5,0,5s6,0,8,0c0,3,0,5,0,8s6,3,6,0S199.435,225,199.435,222z"/>
<path style="fill:#111C21;" d="M242.435,298c2,0,5,0,7,0c4,0,4-6,0-6c-2,0-5,0-7,0c0-2,0-5,0-8s-6-3-6,0s0,6,0,8c-3,0-5,0-8,0
	s-3,6,0,6s5,0,8,0c0,2,0,5,0,7c0,4,6,4,6,0C242.435,303,242.435,300,242.435,298z"/>
<path style="fill:#111C21;" d="M214.435,280c3,0,5,0,8,0c4,0,4-6,0-6c-3,0-5,0-8,0c0-2,0-5,0-7c0-4-5-4-5,0c0,2,0,5,0,7
	c-3,0-5,0-8,0s-3,6,0,6s5,0,8,0c0,2,0,5,0,7c0,4,5,4,5,0C214.435,285,214.435,282,214.435,280z"/>
<path style="fill:#111C21;" d="M197.435,253c3,0,5,0,8,0s3-5,0-5s-5,0-8,0c0-3,0-5,0-8s-5-4-5,0c0,3,0,5,0,8c-3,0-6,0-8,0
	c-4,0-4,5,0,5c2,0,5,0,8,0c0,3,0,5,0,8s5,3,5,0S197.435,256,197.435,253z"/>
<path style="fill:#2D4552;" d="M340.065,299.377c-1.74,1.74-5.025,1.441-7.49-1.023L188.768,154.547
	c-2.464-2.464-3.211-6.197-1.471-7.938l14.876-14.875c1.74-1.741,5.187-0.707,7.65,1.756l143.809,143.809
	c2.463,2.464,3.049,5.462,1.309,7.202L340.065,299.377z"/>
<path style="fill:#2D4552;" d="M231.551,340.69c-4.948,4.948-12.971,4.948-17.92,0l-67.648-67.647
	c-4.948-4.949-4.948-12.972,0-17.92l11.648-11.648c4.948-4.948,12.971-4.948,17.92,0l67.647,67.648
	c4.948,4.948,4.948,12.971,0,17.92L231.551,340.69z"/>
<path style="fill:#1C2B33;" d="M82.981,333.689c17.164,17.164,34.328,34.328,51.491,51.492c6.32,6.32,12.641,12.64,18.961,18.96
	l9.167-8.752c-14.097-14.097-28.193-28.194-42.291-42.292c-9.525-9.525-19.051-19.05-28.576-28.575L82.981,333.689z"/>
<rect x="163.917" y="248.101" transform="matrix(-0.7071 -0.7071 0.7071 -0.7071 102.5857 580.5098)" style="fill:#497085;" width="15.206" height="41.815"/>
<rect x="182.783" y="262.212" transform="matrix(-0.7071 -0.7071 0.7071 -0.7071 116.7015 614.5794)" style="fill:#497085;" width="5.702" height="41.816"/>
<path style="fill:#263A45;" d="M349.466,295.352c-1.039,1.04-2.725,1.04-3.766,0L191.322,140.974c-1.04-1.04-1.04-2.726,0-3.766
	l1.61-1.61c1.04-1.04,2.726-1.04,3.766,0l154.379,154.378c1.039,1.04,1.039,2.726,0,3.766L349.466,295.352z"/>
<path style="fill:#19272E;" d="M257.435,146c-3,0-6,0-8,0c0-3,0-5,0-8c0-4-6-4-6,0c0,3,0,5,0,8c-2,0-5,0-7,0c-4,0-4,5,0,5
	c2,0,5,0,7,0c0,3,0,5,0,8s6,3,6,0s0-5,0-8c2,0,5,0,8,0S260.435,146,257.435,146z"/>
<path style="fill:#19272E;" d="M275.435,164c-3,0-5,0-8,0c0-2,0-5,0-8s-5-3-5,0s0,6,0,8c-3,0-5,0-8,0s-3,6,0,6s5,0,8,0c0,2,0,5,0,7
	c0,4,5,4,5,0c0-2,0-5,0-7c3,0,5,0,8,0C279.435,170,279.435,164,275.435,164z"/>
<path style="fill:#19272E;" d="M293.435,183c-2,0-5,0-7,0c0-3,0-6,0-8c0-4-6-4-6,0c0,2,0,5,0,8c-2,0-5,0-7,0c-4,0-4,5,0,5
	c2,0,5,0,7,0c0,3,0,5,0,8s6,3,6,0s0-5,0-8c2,0,5,0,7,0C297.435,188,297.435,183,293.435,183z"/>
<path style="fill:#19272E;" d="M312.435,201c-3,0-5,0-8,0c0-3,0-5,0-8s-5-3-5,0s0,5,0,8c-3,0-5,0-8,0s-3,5,0,5s5,0,8,0c0,3,0,6,0,8
	c0,4,5,4,5,0c0-2,0-5,0-8c3,0,5,0,8,0S315.435,201,312.435,201z"/>
<path style="fill:#19272E;" d="M330.435,219c-2,0-5,0-7,0c0-2,0-5,0-7c0-4-6-4-6,0c0,2,0,5,0,7c-2,0-5,0-7,0c-4,0-4,6,0,6
	c2,0,5,0,7,0c0,2,0,5,0,8s6,3,6,0s0-6,0-8c2,0,5,0,7,0C334.435,225,334.435,219,330.435,219z"/>
<path style="fill:#19272E;" d="M341.435,243c3,0,5,0,8,0s3-5,0-5s-5,0-8,0c0-3,0-5,0-8s-5-3-5,0s0,5,0,8c-3,0-5,0-8,0s-3,5,0,5
	s5,0,8,0c0,3,0,6,0,8c0,4,5,4,5,0C341.435,249,341.435,246,341.435,243z"/>
<path style="fill:#19272E;" d="M269.435,138c-2,0-5,0-7,0c-4,0-4,5,0,5c2,0,5,0,7,0c0,3,0,6,0,8c0,4,6,4,6,0c0-2,0-5,0-8
	c3,0,5,0,8,0s3-5,0-5s-5,0-8,0c0-3,0-5,0-8s-6-3-6,0S269.435,135,269.435,138z"/>
<path style="fill:#19272E;" d="M293.435,149c0-4-5-4-5,0c0,2,0,5,0,7c-3,0-5,0-8,0s-3,6,0,6s5,0,8,0c0,2,0,5,0,7c0,4,5,4,5,0
	c0-2,0-5,0-7c3,0,5,0,8,0s3-6,0-6s-5,0-8,0C293.435,154,293.435,151,293.435,149z"/>
<path style="fill:#19272E;" d="M319.435,174c-3,0-5,0-8,0c0-2,0-5,0-7c0-4-5-4-5,0c0,2,0,5,0,7c-3,0-5,0-8,0s-3,6,0,6s5,0,8,0
	c0,2,0,5,0,7c0,4,5,4,5,0c0-2,0-5,0-7c3,0,5,0,8,0C323.435,180,323.435,174,319.435,174z"/>
<path style="fill:#19272E;" d="M324.435,192c-3,0-5,0-8,0s-3,6,0,6s5,0,8,0c0,2,0,5,0,8s5,3,5,0s0-6,0-8c3,0,6,0,8,0c4,0,4-6,0-6
	c-2,0-5,0-8,0c0-2,0-5,0-7c0-4-5-4-5,0C324.435,187,324.435,190,324.435,192z"/>
<path style="fill:#19272E;" d="M342.435,211c-2,0-5,0-7,0c-4,0-4,5,0,5c2,0,5,0,7,0c0,3,0,5,0,8s6,3,6,0s0-5,0-8c2,0,5,0,7,0
	c4,0,4-5,0-5c-2,0-5,0-7,0c0-3,0-5,0-8c0-4-6-4-6,0C342.435,206,342.435,208,342.435,211z"/>
<path style="fill:#19272E;" d="M299.435,135c-2,0-5,0-7,0c-4,0-4,6,0,6c2,0,5,0,7,0c0,2,0,5,0,7c0,4,6,4,6,0c0-2,0-5,0-7
	c2,0,5,0,7,0c4,0,4-6,0-6c-2,0-5,0-7,0c0-2,0-5,0-7c0-4-6-4-6,0C299.435,130,299.435,133,299.435,135z"/>
<path style="fill:#19272E;" d="M326.435,153c-2,0-5,0-7,0c-4,0-4,6,0,6c2,0,5,0,7,0c0,2,0,5,0,7c0,4,6,4,6,0c0-2,0-5,0-7
	c2,0,5,0,7,0c4,0,4-6,0-6c-2,0-5,0-7,0c0-2,0-5,0-7c0-4-6-4-6,0C326.435,148,326.435,151,326.435,153z"/>
<path style="fill:#19272E;" d="M344.435,180c-3,0-5,0-8,0c-4,0-4,5,0,5c3,0,5,0,8,0c0,3,0,5,0,8s5,3,5,0s0-5,0-8c3,0,5,0,8,0
	s3-5,0-5s-5,0-8,0c0-3,0-5,0-8s-5-3-5,0S344.435,177,344.435,180z"/>
<path style="fill:#334D5C;" d="M217.172,343.065L96.743,458.132c0.023,0.021,0.049,0.04,0.074,0.06l120.516-115.056
	C217.28,343.11,217.225,343.091,217.172,343.065z"/>
<path style="opacity:0.4;fill:#5D5D5D;enable-background:new    ;" d="M352.421,276.089c29.404-39.587,26.137-95.962-9.756-131.854
	c-0.676-0.676-1.137-1.329-2.051-2.206L177.791,304.851l35.84,35.84c1.038,1.037,2.215,1.844,3.465,2.446l0.076-0.072
	c0.053,0.026,0.108,0.046,0.161,0.071c4.713,2.246,10.547,1.226,14.437-2.663l11.647-11.648c4.234-4.233,4.822-10.557,1.781-15.442
	c29.111,7.718,61.426,2.028,86.166-16.237l1.211,1.21c2.465,2.464,5.75,2.763,7.49,1.023l4.381-4.382l2.69,2.688l5.824-5.824
	l-2.689-2.688l4.67-4.67c1.74-1.74,1.154-4.738-1.309-7.202L352.421,276.089z"/>
<g>
</g>
<g>
</g>
<g>
</g>
<g>
</g>
<g>
</g>
<g>
</g>
<g>
</g>
<g>
</g>
<g>
</g>
<g>
</g>
<g>
</g>
<g>
</g>
<g>
</g>
<g>
</g>
<g>
</g>
</svg>
